<svg width="41" height="40" viewBox="0 0 41 40" fill="none" xmlns="http://www.w3.org/2000/svg">
<path opacity="0.99" d="M9.93221 23.484C9.57335 23.1251 8.9959 23.1251 8.63705 23.484L7.07129 25.0498L15.0393 33.0182L16.6051 31.4524C16.9639 31.0935 16.9639 30.516 16.6051 30.1572L9.93221 23.484Z" fill="#15B160"/>
<path opacity="0.99" d="M6.6519 24.6289L3.62585 27.6395C3.19373 28.0694 3.19373 28.7608 3.62585 29.1907L10.9887 36.5158C11.4208 36.9456 12.1163 36.9456 12.5484 36.5158L15.5511 33.5285L6.6519 24.6289Z" fill="#15B160"/>
<path opacity="0.99" d="M22.2359 6.90234H28.2384C28.8511 6.90234 29.3443 7.39561 29.3443 8.00832C29.3443 8.62102 28.8511 9.11429 28.2384 9.11429H22.2359C21.6231 9.11429 21.1299 8.62102 21.1299 8.00832C21.1299 7.39561 21.6231 6.90234 22.2359 6.90234Z" fill="#15B160"/>
<path d="M20.8623 3.16406L22.73 6.89826H27.7448L29.6125 3.16406H20.8623Z" fill="#15B160"/>
<path opacity="0.99" d="M20.853 2.54302C20.3889 2.54395 20.0876 3.03245 20.2951 3.44757L21.7465 6.35291C21.0293 6.56478 20.4928 7.22535 20.4928 8.00577C20.4928 8.35534 20.6009 8.68196 20.7834 8.9555C18.5253 10.8458 16.7642 14.2263 16.3912 18.7006C16.3638 19.0443 16.62 19.3453 16.9637 19.3732C17.3057 19.4014 17.6065 19.1486 17.6376 18.8068C18.005 14.3985 19.8309 11.2776 21.8869 9.72211C24.1092 9.75464 26.3545 9.72195 28.5876 9.72755C30.4093 11.1346 32.058 13.9748 32.6455 17.5054C32.7033 17.8454 33.0256 18.0743 33.3657 18.0169C33.7071 17.9614 33.9386 17.6392 33.8821 17.2979C33.283 13.6973 31.6953 10.686 29.6706 8.95545C29.8531 8.68191 29.9611 8.3553 29.9611 8.00573C29.9611 7.22531 29.4247 6.56473 28.7074 6.35286L30.1588 3.44753C30.3663 3.03241 30.0651 2.54389 29.601 2.54297L20.853 2.54302ZM21.8637 3.78816H28.5899L27.3497 6.27478H23.104L21.8637 3.78816ZM22.1999 7.51543L28.2262 7.52606C28.5034 7.52655 28.7108 7.72855 28.7108 8.0058C28.7108 8.255 28.5382 8.43522 28.3031 8.4709L22.1958 8.48295C21.892 8.48295 21.7414 8.25102 21.7414 7.99317C21.7518 7.7284 21.9323 7.51554 22.1999 7.51554V7.51543ZM24.6043 11.9829V12.4041C24.4774 12.4474 24.3519 12.4991 24.2344 12.5688C23.6988 12.8868 23.3494 13.4345 23.2895 14.0545C23.2296 14.6745 23.4684 15.284 23.9353 15.6963C24.2703 15.9922 24.6544 16.1289 25.1256 16.2988C25.6897 16.518 25.9216 16.7473 25.919 17.1356C25.9272 17.34 25.7548 17.5611 25.5772 17.6666C25.3995 17.7721 25.1333 17.793 24.9448 17.713C24.7563 17.633 24.59 17.4311 24.5444 17.2333C24.4681 16.8964 24.1329 16.6854 23.7961 16.7621C23.4598 16.839 23.2494 17.174 23.3261 17.5104C23.4659 18.1174 23.8832 18.6183 24.4565 18.8617C24.5044 18.882 24.5553 18.8881 24.6043 18.9044V19.328C24.603 19.6732 24.8816 19.9541 25.2268 19.9555C25.572 19.9541 25.8507 19.6732 25.8494 19.328V18.9057C25.9762 18.8623 26.1017 18.8118 26.2193 18.7421C26.7549 18.4241 27.1042 17.8764 27.1641 17.2564C27.224 16.6365 26.9852 16.0306 26.5184 15.6182C26.3392 15.46 26.0889 15.3204 25.5855 15.1381C25.0821 14.9557 24.8854 14.866 24.7654 14.76C24.6128 14.6252 24.5151 14.3769 24.5347 14.1741C24.5543 13.9712 24.6988 13.7485 24.8765 13.6431C25.0542 13.5376 25.3204 13.5216 25.5088 13.6016C25.6973 13.6816 25.8637 13.8834 25.9092 14.0813C25.9878 14.4162 26.3223 14.6246 26.6575 14.5476C26.9933 14.4707 27.2035 14.1365 27.1275 13.8005C26.9877 13.1935 26.5704 12.6914 25.9971 12.448C25.9492 12.4277 25.8983 12.4216 25.8494 12.4052V11.9829C25.8488 11.6391 25.5706 11.3604 25.2268 11.3605C24.8831 11.3605 24.6049 11.6391 24.6042 11.9829L24.6043 11.9829ZM34.9157 18.2013L29.7203 22.187C29.341 21.5401 28.6446 21.0986 27.8428 21.1042L22.8366 21.1359C21.7469 21.1495 19.9096 20.2462 17.6827 20.1215C15.5779 20.0036 13.1249 20.5846 10.6184 23.299L10.3608 23.0415C9.65824 22.3389 8.7652 22.4593 8.18303 23.0415L7.05507 24.1694C6.7774 23.9125 6.44353 23.9423 6.19935 24.1865L3.17316 27.1944C2.50348 27.8606 2.50347 28.9684 3.17316 29.6346L10.5366 36.9565C11.2064 37.6228 12.307 37.6229 12.9768 36.9565L15.981 33.9718C16.3248 33.628 16.1841 33.2886 15.9114 33.016L17.037 31.8905C17.5966 31.3309 17.6236 30.4314 17.1322 29.8299C17.523 29.3737 18.3845 28.6349 19.902 28.6751C22.661 28.7482 24.8529 28.8931 26.6111 28.8179C28.3694 28.7428 29.7624 28.4416 30.7311 27.4751C33.584 24.6287 37.0569 21.1774 37.0569 21.1774C37.5477 20.6847 37.6507 20.4477 37.746 20.0915C37.8687 19.6686 37.7999 19.1624 37.522 18.7323C37.2471 18.3069 36.8066 18.0107 36.3318 17.9022C35.8215 17.7669 35.338 17.8939 34.9157 18.2013L34.9157 18.2013ZM36.454 20.0935C36.454 20.0935 32.693 23.7485 29.8448 26.5901C29.2138 27.2196 28.1976 27.5027 26.5562 27.5728C24.9147 27.6429 22.7201 27.4989 19.9349 27.4251C18.0834 27.376 16.8868 28.3047 16.2752 28.9522L11.5107 24.1902C16.2413 18.9847 19.6311 22.4273 22.8513 22.3872L27.8526 22.3542C28.3743 22.3506 28.7742 22.7537 28.7742 23.2771C28.7742 23.8005 28.3746 24.2048 27.8477 24.2048H21.5121C21.1669 24.2062 20.8882 24.4871 20.8895 24.8323C20.8908 25.1756 21.1688 25.4535 21.5121 25.4548H27.8477C28.9504 25.4548 29.8602 24.6177 29.9974 23.5505L35.6774 19.1937C35.9447 18.9913 36.2542 19.117 36.4352 19.3325C36.6162 19.5481 36.671 19.8765 36.4539 20.0935H36.454ZM9.47944 23.9228L16.1519 30.599C16.2737 30.7208 16.2737 30.8873 16.1519 31.0092L15.0301 32.1359L7.94377 25.0483L9.06927 23.9228C9.22809 23.764 9.41545 23.8588 9.47944 23.9228ZM6.63758 25.5098L14.6458 33.5359L12.0955 36.0715C11.901 36.2649 11.6124 36.2649 11.418 36.0715L4.05453 28.7484C3.85997 28.5548 3.85997 28.2729 4.05453 28.0794L6.63758 25.5098ZM11.4863 33.4738C11.2723 33.7704 11.3396 34.1843 11.6365 34.3979C11.9328 34.611 12.3458 34.5438 12.5593 34.2477C12.7728 33.9517 12.7061 33.5387 12.4104 33.3249C12.072 33.1083 11.7086 33.1761 11.4863 33.4738L11.4863 33.4738Z" fill="#15B160"/>
</svg>
