<svg width="10" height="15" viewBox="0 0 10 15" fill="none" xmlns="http://www.w3.org/2000/svg">
<path d="M6.44361 11.4633C6.62009 11.4633 6.78935 11.3932 6.91414 11.2684C7.03893 11.1436 7.10903 10.9743 7.10903 10.7978L7.10903 3.08459L8.63285 4.61526C8.75815 4.74057 8.92809 4.81098 9.10529 4.81098C9.2825 4.81098 9.45244 4.74057 9.57774 4.61526C9.70304 4.48994 9.77344 4.31997 9.77344 4.14275C9.77344 3.96552 9.70304 3.79555 9.57774 3.67023L6.91606 1.0082C6.82249 0.915852 6.70366 0.853297 6.57458 0.828424C6.44549 0.803551 6.31193 0.817476 6.19075 0.86844C6.06923 0.918366 5.96521 1.00315 5.89179 1.11211C5.81838 1.22107 5.77885 1.34932 5.77819 1.48071L5.77819 10.7978C5.77819 10.9743 5.8483 11.1436 5.97309 11.2684C6.09788 11.3932 6.26713 11.4633 6.44361 11.4633ZM4.03479 14.0721C4.15631 14.0222 4.26033 13.9374 4.33375 13.8285C4.40717 13.7195 4.4467 13.5913 4.44735 13.4599L4.44735 4.14275C4.44735 3.96624 4.37724 3.79697 4.25245 3.67216C4.12766 3.54735 3.95841 3.47724 3.78193 3.47724C3.60545 3.47724 3.4362 3.54735 3.31141 3.67216C3.18662 3.79697 3.11651 3.96624 3.11651 4.14275L3.11651 11.856L1.5927 10.3253C1.53084 10.2629 1.45724 10.2134 1.37616 10.1797C1.29507 10.1459 1.20809 10.1285 1.12025 10.1285C1.03241 10.1285 0.945432 10.1459 0.864345 10.1797C0.783257 10.2134 0.709662 10.2629 0.647802 10.3253C0.585433 10.3872 0.535929 10.4608 0.502146 10.5419C0.468364 10.623 0.450971 10.71 0.450971 10.7978C0.450971 10.8857 0.468364 10.9727 0.502146 11.0538C0.535929 11.1349 0.585433 11.2085 0.647802 11.2703L3.30948 13.9324C3.40306 14.0247 3.52188 14.0873 3.65097 14.1122C3.78005 14.137 3.91361 14.1231 4.03479 14.0721V14.0721Z" fill="white"/>
</svg>
