<svg width="26" height="26" viewBox="0 0 26 26" fill="none" xmlns="http://www.w3.org/2000/svg">
<path d="M13 25.5C19.9036 25.5 25.5 19.9036 25.5 13C25.5 6.09644 19.9036 0.5 13 0.5C6.09644 0.5 0.5 6.09644 0.5 13C0.5 19.9036 6.09644 25.5 13 25.5Z" stroke="#96A1C2"/>
<path d="M13 14.0598L9.97549 10.5312C9.75233 10.2709 9.39052 10.2709 9.16737 10.5312C8.94421 10.7915 8.94421 11.2137 9.16737 11.474L12.5959 15.474C12.8191 15.7344 13.1809 15.7344 13.4041 15.474L16.8326 11.474C17.0558 11.2137 17.0558 10.7915 16.8326 10.5312C16.6095 10.2709 16.2477 10.2709 16.0245 10.5312L13 14.0598Z" fill="#96A1C2"/>
</svg>
