<svg width="15" height="15" viewBox="0 0 15 15" fill="none" xmlns="http://www.w3.org/2000/svg">
<g clip-path="url(#clip0_100_16199)">
<path d="M15 4.5V0.500001C15 0.367393 14.9473 0.240216 14.8536 0.146447C14.7598 0.0526792 14.6326 8.00651e-07 14.5 8.00651e-07L10.5 8.00651e-07C10.401 -0.000176365 10.3041 0.029052 10.2217 0.0839806C10.1394 0.138909 10.0751 0.217064 10.0372 0.308538C9.9993 0.400011 9.98939 0.500683 10.0088 0.597791C10.0281 0.6949 10.0759 0.784071 10.146 0.854001L11.793 2.5L0.145999 14.146L0.853999 14.854L12.5 3.207L14.146 4.854C14.2159 4.92411 14.3051 4.97187 14.4022 4.99124C14.4993 5.01061 14.6 5.0007 14.6915 4.96279C14.7829 4.92487 14.8611 4.86064 14.916 4.77825C14.9709 4.69586 15.0002 4.59902 15 4.5Z" fill="white"/>
</g>
<defs>
<clipPath id="clip0_100_16199">
<rect width="15" height="15" fill="white" transform="matrix(0 1 -1 0 15 0)"/>
</clipPath>
</defs>
</svg>
