<svg width="26" height="26" viewBox="0 0 26 26" fill="none" xmlns="http://www.w3.org/2000/svg">
<path d="M20.9126 2.46875V22.7812C20.9126 24.0996 19.8384 25.125 18.5688 25.125H7.63135C6.31299 25.125 5.2876 24.0996 5.2876 22.7812V2.46875C5.2876 1.19922 6.31299 0.125 7.63135 0.125H18.5688C19.8384 0.125 20.9126 1.19922 20.9126 2.46875ZM25.6001 5.30078V5.88672C25.6001 6.08203 25.4536 6.17969 25.3071 6.17969H24.4282V6.47266C24.4282 6.66797 24.2817 6.76562 24.1353 6.76562H22.0845V4.42188H24.1353C24.2817 4.42188 24.4282 4.56836 24.4282 4.71484V5.00781H25.3071C25.4536 5.00781 25.6001 5.1543 25.6001 5.30078ZM25.6001 9.98828V10.5742C25.6001 10.7695 25.4536 10.8672 25.3071 10.8672H24.4282V11.1602C24.4282 11.3555 24.2817 11.4531 24.1353 11.4531H22.0845V9.10938H24.1353C24.2817 9.10938 24.4282 9.25586 24.4282 9.40234V9.69531H25.3071C25.4536 9.69531 25.6001 9.8418 25.6001 9.98828ZM25.6001 14.6758V15.2617C25.6001 15.457 25.4536 15.5547 25.3071 15.5547H24.4282V15.8477C24.4282 16.043 24.2817 16.1406 24.1353 16.1406H22.0845V13.7969H24.1353C24.2817 13.7969 24.4282 13.9434 24.4282 14.0898V14.3828H25.3071C25.4536 14.3828 25.6001 14.5293 25.6001 14.6758ZM25.6001 19.3633V19.9492C25.6001 20.1445 25.4536 20.2422 25.3071 20.2422H24.4282V20.5352C24.4282 20.7305 24.2817 20.8281 24.1353 20.8281H22.0845V18.4844H24.1353C24.2817 18.4844 24.4282 18.6309 24.4282 18.7773V19.0703H25.3071C25.4536 19.0703 25.6001 19.2168 25.6001 19.3633ZM2.06494 18.4844H4.11572V20.8281H2.06494C1.86963 20.8281 1.77197 20.7305 1.77197 20.5352V20.2422H0.893066C0.697754 20.2422 0.600098 20.1445 0.600098 19.9492V19.3633C0.600098 19.2168 0.697754 19.0703 0.893066 19.0703H1.77197V18.7773C1.77197 18.6309 1.86963 18.4844 2.06494 18.4844ZM2.06494 13.7969H4.11572V16.1406H2.06494C1.86963 16.1406 1.77197 16.043 1.77197 15.8477V15.5547H0.893066C0.697754 15.5547 0.600098 15.457 0.600098 15.2617V14.6758C0.600098 14.5293 0.697754 14.3828 0.893066 14.3828H1.77197V14.0898C1.77197 13.9434 1.86963 13.7969 2.06494 13.7969ZM2.06494 9.10938H4.11572V11.4531H2.06494C1.86963 11.4531 1.77197 11.3555 1.77197 11.1602V10.8672H0.893066C0.697754 10.8672 0.600098 10.7695 0.600098 10.5742V9.98828C0.600098 9.8418 0.697754 9.69531 0.893066 9.69531H1.77197V9.40234C1.77197 9.25586 1.86963 9.10938 2.06494 9.10938ZM2.06494 4.42188H4.11572V6.76562H2.06494C1.86963 6.76562 1.77197 6.66797 1.77197 6.47266V6.17969H0.893066C0.697754 6.17969 0.600098 6.08203 0.600098 5.88672V5.30078C0.600098 5.1543 0.697754 5.00781 0.893066 5.00781H1.77197V4.71484C1.77197 4.56836 1.86963 4.42188 2.06494 4.42188Z" fill="#BE7B2E"/>
</svg>
