<svg width="26" height="26" viewBox="0 0 26 26" fill="none" xmlns="http://www.w3.org/2000/svg">
<path d="M25.2583 1.10156C25.6001 2.66406 25.6001 3.88477 25.5513 5.10547C25.5513 10.1348 22.8657 13.1621 19.3013 15.4082V20.5352C19.3013 21.3164 18.7642 22.2441 18.0317 22.6348L13.1978 25.0273C13.0513 25.0762 12.856 25.125 12.7095 25.125C12.0259 25.125 11.5376 24.6367 11.4888 23.9531V18.9238L10.4146 19.998C9.77979 20.6328 8.75439 20.5352 8.21729 19.998L5.72705 17.5078C5.09229 16.873 5.14111 15.8477 5.72705 15.3105L6.80127 14.1875H1.77197C1.08838 14.1875 0.600098 13.6992 0.600098 13.0156C0.600098 12.8691 0.648926 12.6738 0.697754 12.5273L3.09033 7.69336C3.48096 6.96094 4.40869 6.42383 5.18994 6.375H10.3169C12.563 2.85938 15.5903 0.125 20.6196 0.125C21.8403 0.125 23.061 0.125 24.6235 0.466797C24.9165 0.564453 25.1606 0.808594 25.2583 1.10156ZM19.3501 8.32812C20.4243 8.32812 21.3032 7.49805 21.3032 6.375C21.3032 5.30078 20.4243 4.42188 19.3501 4.42188C18.2271 4.42188 17.397 5.30078 17.397 6.375C17.397 7.49805 18.2271 8.32812 19.3501 8.32812Z" fill="#BE7B2E"/>
</svg>
