<svg width="14" height="15" viewBox="0 0 14 15" fill="none" xmlns="http://www.w3.org/2000/svg">
<path d="M7 0.875C10.7188 0.875 13.7812 3.9375 13.7812 7.65625C13.7812 11.4023 10.7188 14.4375 7 14.4375C3.25391 14.4375 0.21875 11.4023 0.21875 7.65625C0.21875 3.9375 3.25391 0.875 7 0.875ZM7 2.1875C3.96484 2.1875 1.53125 4.64844 1.53125 7.65625C1.53125 10.6914 3.96484 13.125 7 13.125C10.0078 13.125 12.4688 10.6914 12.4688 7.65625C12.4688 4.64844 10.0078 2.1875 7 2.1875ZM10.8281 5.76953C10.9375 5.87891 10.9375 6.09766 10.8281 6.23438L6.09766 10.9102C5.96094 11.0469 5.76953 11.0469 5.63281 10.9102L3.14453 8.39453C3.03516 8.28516 3.03516 8.06641 3.14453 7.92969L3.77344 7.32812C3.91016 7.19141 4.10156 7.19141 4.23828 7.32812L5.87891 8.96875L9.73438 5.14062C9.87109 5.00391 10.0898 5.00391 10.1992 5.14062L10.8281 5.76953Z" fill="#BE7B2E"/>
</svg>
