<svg width="26" height="19" viewBox="0 0 26 19" fill="none" xmlns="http://www.w3.org/2000/svg">
<path d="M25.1113 6.45117C25.3066 6.30469 25.5996 6.45117 25.5996 6.69531V16.6562C25.5996 17.9746 24.5254 19 23.2559 19H2.94336C1.625 19 0.599609 17.9746 0.599609 16.6562V6.69531C0.599609 6.45117 0.84375 6.30469 1.03906 6.45117C2.16211 7.33008 3.57812 8.4043 8.55859 12.0176C9.58398 12.75 11.3418 14.3613 13.0996 14.3613C14.8086 14.3613 16.6152 12.75 17.5918 12.0176C22.5723 8.4043 23.9883 7.33008 25.1113 6.45117ZM13.0996 12.75C11.9277 12.7988 10.3164 11.334 9.48633 10.748C2.99219 6.06055 2.50391 5.62109 1.03906 4.44922C0.746094 4.25391 0.599609 3.91211 0.599609 3.52148V2.59375C0.599609 1.32422 1.625 0.25 2.94336 0.25H23.2559C24.5254 0.25 25.5996 1.32422 25.5996 2.59375V3.52148C25.5996 3.91211 25.4043 4.25391 25.1113 4.44922C23.6465 5.62109 23.1582 6.06055 16.6641 10.748C15.834 11.334 14.2227 12.7988 13.0996 12.75Z" fill="#BE7B2E"/>
</svg>
