<svg width="12" height="9" viewBox="0 0 12 9" fill="none" xmlns="http://www.w3.org/2000/svg">
<path d="M11.2451 3.47852C11.3311 3.41406 11.46 3.47852 11.46 3.58594V7.96875C11.46 8.54883 10.9873 9 10.4287 9H1.49121C0.911133 9 0.459961 8.54883 0.459961 7.96875V3.58594C0.459961 3.47852 0.567383 3.41406 0.65332 3.47852C1.14746 3.86523 1.77051 4.33789 3.96191 5.92773C4.41309 6.25 5.18652 6.95898 5.95996 6.95898C6.71191 6.95898 7.50684 6.25 7.93652 5.92773C10.1279 4.33789 10.751 3.86523 11.2451 3.47852ZM5.95996 6.25C5.44434 6.27148 4.73535 5.62695 4.37012 5.36914C1.5127 3.30664 1.29785 3.11328 0.65332 2.59766C0.524414 2.51172 0.459961 2.36133 0.459961 2.18945V1.78125C0.459961 1.22266 0.911133 0.75 1.49121 0.75H10.4287C10.9873 0.75 11.46 1.22266 11.46 1.78125V2.18945C11.46 2.36133 11.374 2.51172 11.2451 2.59766C10.6006 3.11328 10.3857 3.30664 7.52832 5.36914C7.16309 5.62695 6.4541 6.27148 5.95996 6.25Z" fill="#96A1C2"/>
</svg>
