<svg width="36" height="36" viewBox="0 0 36 36" fill="none" xmlns="http://www.w3.org/2000/svg">
<path d="M2.1099 4.8984e-06C1.08194 4.8984e-06 0.237309 0.844641 0.237309 1.8726C0.237309 2.90056 1.08194 3.75008 2.1099 3.75008V11.874C2.1099 12.2192 2.38973 12.499 2.73491 12.499C3.08009 12.499 3.35992 12.2192 3.35992 11.874V3.75008H32.1105V26.2469H3.35992V14.3741C3.35992 14.0289 3.08009 13.7491 2.73491 13.7491C2.38973 13.7491 2.1099 14.0289 2.1099 14.3741V26.2469H0.85988C0.777803 26.2472 0.696591 26.2637 0.620883 26.2954C0.545176 26.3271 0.476454 26.3734 0.418643 26.4316C0.360832 26.4899 0.315065 26.559 0.283952 26.6349C0.252839 26.7109 0.236988 26.7922 0.237309 26.8743C0.237953 27.0392 0.303749 27.1972 0.420364 27.3138C0.53698 27.4304 0.694963 27.4962 0.85988 27.4969H9.62225L7.12099 32.3517C6.65448 33.2681 7.02473 34.4071 7.94132 34.8737C8.85737 35.3401 9.99578 34.9694 10.4621 34.0534L13.7996 27.4969H17.109V30.7867C16.2367 31.0594 15.5916 31.87 15.5916 32.8266C15.5916 34.0026 16.5616 34.9677 17.7377 34.9677C18.9137 34.9677 19.8776 34.0026 19.8776 32.8266C19.8776 31.8686 19.2332 31.057 18.3602 30.7855V27.4969H21.6708L25.0083 34.0534C25.4746 34.9694 26.613 35.3401 27.5291 34.8737C28.4457 34.4071 28.8159 33.2681 28.3494 32.3517L25.7603 27.4969H34.6093C34.6914 27.4972 34.7727 27.4814 34.8487 27.4502C34.9246 27.4191 34.9937 27.3734 35.052 27.3155C35.1103 27.2577 35.1566 27.189 35.1883 27.1133C35.22 27.0376 35.2365 26.9564 35.2368 26.8743C35.2371 26.7918 35.2211 26.7101 35.1897 26.6338C35.1583 26.5575 35.112 26.4882 35.0537 26.4299C34.9954 26.3716 34.9261 26.3254 34.8498 26.294C34.7735 26.2625 34.6918 26.2465 34.6093 26.2469H33.3605V3.75008C34.3879 3.74939 35.2368 2.90015 35.2368 1.8726C35.2368 0.844641 34.3873 4.8984e-06 33.3593 4.8984e-06H28.2152C27.87 -0.00134513 27.589 0.277389 27.5877 0.622576C27.5864 0.969671 27.8681 1.25139 28.2152 1.25003H33.3593C33.7164 1.25003 33.9867 1.51553 33.9867 1.8726C33.9867 2.22967 33.7164 2.50005 33.3593 2.50005H2.1099C1.75283 2.50005 1.48244 2.22967 1.48244 1.8726C1.48244 1.51553 1.75283 1.25003 2.1099 1.25003H25.7139C26.061 1.25139 26.3427 0.969671 26.3413 0.622576C26.3401 0.277389 26.0591 -0.00134721 25.7139 4.8984e-06H2.1099ZM25.8616 6.19153C23.4527 6.19153 21.4828 8.15651 21.4828 10.5654C21.4828 12.9743 23.4527 14.9429 25.8616 14.9429C28.2705 14.9429 30.2355 12.9743 30.2355 10.5654C30.2355 8.15651 28.2705 6.19153 25.8616 6.19153ZM5.85997 6.85805C5.69005 6.8582 5.52713 6.92576 5.40697 7.04592C5.28681 7.16608 5.21924 7.329 5.21909 7.49893C5.21924 7.66886 5.28681 7.83178 5.40697 7.95194C5.52713 8.0721 5.69005 8.13967 5.85997 8.13981C6.0299 8.13967 6.19282 8.0721 6.31298 7.95194C6.43314 7.83178 6.50071 7.66886 6.50086 7.49893C6.50071 7.329 6.43314 7.16608 6.31298 7.04592C6.19282 6.92576 6.0299 6.8582 5.85997 6.85805ZM8.36247 6.87392C8.28029 6.87344 8.19882 6.88917 8.12272 6.92021C8.04663 6.95125 7.97741 6.997 7.91901 7.05482C7.86062 7.11265 7.8142 7.18143 7.78242 7.25721C7.75064 7.333 7.73411 7.41431 7.73379 7.4965C7.73346 7.57909 7.74952 7.66092 7.78102 7.73728C7.81251 7.81363 7.85882 7.88298 7.91727 7.94133C7.97573 7.99967 8.04518 8.04585 8.1216 8.0772C8.19801 8.10854 8.27988 8.12443 8.36247 8.12395H19.6103C19.6923 8.12363 19.7735 8.10714 19.8492 8.07544C19.925 8.04373 19.9937 7.99742 20.0515 7.93916C20.1093 7.88089 20.1551 7.81181 20.1862 7.73586C20.2173 7.65991 20.2331 7.57857 20.2328 7.49649C20.2322 7.33157 20.1664 7.17359 20.0498 7.05698C19.9331 6.94036 19.7752 6.87456 19.6103 6.87392L8.36247 6.87392ZM25.2341 7.50382V10.3762L23.6423 12.7713C23.0809 12.2064 22.7341 11.4286 22.7341 10.5654C22.7341 9.04702 23.8035 7.79175 25.2341 7.50382ZM26.4842 7.50382C27.7149 7.74972 28.6768 8.71102 28.9232 9.94161H26.4842V7.50382ZM5.85997 9.98311C5.69005 9.98326 5.52713 10.0508 5.40697 10.171C5.28681 10.2911 5.21924 10.4541 5.21909 10.624C5.21924 10.7939 5.28681 10.9568 5.40697 11.077C5.52713 11.1972 5.69005 11.2647 5.85997 11.2649C6.0299 11.2647 6.19282 11.1972 6.31298 11.077C6.43314 10.9568 6.50071 10.7939 6.50086 10.624C6.50071 10.4541 6.43314 10.2911 6.31298 10.171C6.19282 10.0508 6.0299 9.98326 5.85997 9.98311ZM8.36247 9.99776C8.27988 9.99728 8.19801 10.0132 8.1216 10.0445C8.04518 10.0759 7.97573 10.122 7.91727 10.1804C7.85882 10.2387 7.81251 10.3081 7.78102 10.3844C7.74952 10.4608 7.73346 10.5426 7.73379 10.6252C7.73411 10.7074 7.75064 10.7887 7.78242 10.8645C7.8142 10.9403 7.86062 11.0091 7.91901 11.0669C7.97741 11.1247 8.04663 11.1705 8.12272 11.2015C8.19882 11.2325 8.28029 11.2483 8.36247 11.2478H14.6089C14.691 11.2481 14.7723 11.2323 14.8483 11.2011C14.9242 11.17 14.9933 11.1243 15.0516 11.0665C15.1099 11.0086 15.1562 10.9399 15.1879 10.8642C15.2196 10.7885 15.2361 10.7073 15.2364 10.6252C15.2367 10.5427 15.2207 10.461 15.1893 10.3847C15.1579 10.3084 15.1116 10.2391 15.0533 10.1808C14.995 10.1225 14.9257 10.0763 14.8494 10.0449C14.7732 10.0134 14.6914 9.99744 14.6089 9.99776L8.36247 9.99776ZM26.1949 11.1929H28.922C28.6335 12.6228 27.3795 13.6929 25.8616 13.6929C25.4431 13.6929 25.0465 13.6075 24.6824 13.4597L26.1949 11.1929ZM5.85997 13.1082C5.69005 13.1083 5.52713 13.1759 5.40697 13.296C5.28681 13.4162 5.21924 13.5791 5.21909 13.7491C5.21924 13.919 5.28681 14.0819 5.40697 14.2021C5.52713 14.3222 5.69005 14.3898 5.85997 14.3899C6.0299 14.3898 6.19282 14.3222 6.31298 14.2021C6.43314 14.0819 6.50071 13.919 6.50086 13.7491C6.50071 13.5791 6.43314 13.4162 6.31298 13.296C6.19282 13.1759 6.0299 13.1083 5.85997 13.1082ZM8.36247 13.1253C8.28029 13.1248 8.19882 13.1405 8.12272 13.1715C8.04663 13.2026 7.97741 13.2483 7.91901 13.3062C7.86062 13.364 7.8142 13.4328 7.78242 13.5085C7.75064 13.5843 7.73411 13.6656 7.73379 13.7478C7.7333 13.8305 7.74923 13.9125 7.78066 13.989C7.81208 14.0655 7.85837 14.135 7.91684 14.1934C7.97532 14.2519 8.04481 14.2982 8.12131 14.3296C8.1978 14.3611 8.27977 14.377 8.36247 14.3765H19.6103C19.6924 14.3762 19.7737 14.3597 19.8495 14.3279C19.9253 14.2961 19.9941 14.2497 20.0519 14.1913C20.1097 14.1329 20.1555 14.0637 20.1865 13.9876C20.2176 13.9115 20.2333 13.83 20.2328 13.7478C20.2322 13.5829 20.1664 13.4249 20.0498 13.3083C19.9331 13.1917 19.7752 13.1259 19.6103 13.1253L8.36247 13.1253ZM14.858 16.0782C14.6922 16.0789 14.5335 16.1453 14.4167 16.263C14.3 16.3807 14.2348 16.5399 14.2354 16.7056V23.1792C14.2348 23.3449 14.3 23.5041 14.4167 23.6218C14.5335 23.7395 14.6922 23.806 14.858 23.8066H17.109C17.1916 23.8071 17.2734 23.7912 17.3498 23.7598C17.4263 23.7285 17.4957 23.6823 17.5541 23.624C17.6126 23.5656 17.6589 23.4963 17.6904 23.4199C17.7219 23.3436 17.738 23.2618 17.7377 23.1792V16.7057C17.738 16.6231 17.7219 16.5412 17.6904 16.4649C17.6589 16.3885 17.6126 16.3192 17.5541 16.2608C17.4957 16.2025 17.4263 16.1563 17.3498 16.125C17.2734 16.0936 17.1916 16.0777 17.109 16.0782L14.858 16.0782ZM20.8603 16.2332C20.6903 16.2334 20.5274 16.3009 20.4073 16.4211C20.2871 16.5413 20.2195 16.7042 20.2194 16.8741C20.2195 17.044 20.2871 17.207 20.4073 17.3271C20.5274 17.4473 20.6903 17.5148 20.8603 17.515C21.0302 17.5148 21.1931 17.4473 21.3133 17.3271C21.4334 17.207 21.501 17.044 21.5012 16.8741C21.501 16.7042 21.4334 16.5413 21.3133 16.4211C21.1931 16.3009 21.0302 16.2334 20.8603 16.2332ZM23.3615 16.2491C23.2795 16.2488 23.1981 16.2646 23.1222 16.2957C23.0462 16.3269 22.9771 16.3726 22.9189 16.4304C22.8606 16.4882 22.8143 16.557 22.7826 16.6327C22.7509 16.7084 22.7344 16.7896 22.7341 16.8717C22.7338 16.9542 22.7498 17.0359 22.7812 17.1122C22.8126 17.1884 22.8588 17.2577 22.9171 17.3161C22.9755 17.3744 23.0448 17.4206 23.121 17.452C23.1973 17.4834 23.2791 17.4994 23.3615 17.4991H25.8616C25.9437 17.4988 26.0249 17.4823 26.1006 17.4506C26.1763 17.4189 26.245 17.3726 26.3028 17.3143C26.3606 17.2561 26.4064 17.187 26.4375 17.111C26.4686 17.0351 26.4845 16.9538 26.4842 16.8717C26.4835 16.7068 26.4177 16.5488 26.3011 16.4322C26.1845 16.3155 26.0265 16.2497 25.8616 16.2491L23.3615 16.2491ZM10.3596 17.3282C10.1944 17.3289 10.0363 17.3949 9.91965 17.5117C9.803 17.6286 9.73734 17.7869 9.737 17.952V23.1792C9.73637 23.3449 9.8016 23.5042 9.91835 23.6218C10.0351 23.7395 10.1938 23.806 10.3596 23.8066H12.6106C12.6928 23.8065 12.7741 23.7901 12.85 23.7584C12.9258 23.7268 12.9947 23.6805 13.0526 23.6223C13.1105 23.564 13.1564 23.4948 13.1876 23.4188C13.2188 23.3428 13.2347 23.2614 13.2344 23.1792V17.952C13.234 17.7867 13.1682 17.6282 13.0513 17.5113C12.9344 17.3944 12.7759 17.3286 12.6106 17.3282H10.3596ZM15.4854 17.3282H16.4864V22.5566H15.4854V17.3282ZM5.86119 18.5795C5.69543 18.5788 5.53621 18.6441 5.41855 18.7608C5.30088 18.8776 5.23441 19.0363 5.23375 19.202V23.1792C5.23343 23.2617 5.24944 23.3434 5.28086 23.4197C5.31229 23.4959 5.35849 23.5652 5.41682 23.6235C5.47514 23.6819 5.54444 23.7281 5.62071 23.7595C5.69697 23.7909 5.7787 23.8069 5.86119 23.8066H8.10856C8.19104 23.8069 8.27277 23.7909 8.34904 23.7595C8.42531 23.7281 8.4946 23.6819 8.55293 23.6235C8.61126 23.5652 8.65746 23.4959 8.68888 23.4197C8.7203 23.3434 8.73632 23.2617 8.736 23.1792V19.202C8.73534 19.0363 8.66887 18.8776 8.5512 18.7608C8.43353 18.6441 8.27432 18.5788 8.10856 18.5795H5.86119ZM10.987 18.5795H11.9831V22.5566H10.987V18.5795ZM20.8603 19.3583C20.6903 19.3584 20.5274 19.426 20.4073 19.5462C20.2871 19.6663 20.2195 19.8292 20.2194 19.9992C20.2195 20.1691 20.2871 20.332 20.4073 20.4522C20.5274 20.5723 20.6903 20.6399 20.8603 20.6401C21.0302 20.6399 21.1931 20.5723 21.3133 20.4522C21.4334 20.332 21.501 20.1691 21.5012 19.9992C21.501 19.8292 21.4334 19.6663 21.3133 19.5462C21.1931 19.426 21.0302 19.3584 20.8603 19.3583ZM23.3615 19.3729C23.2791 19.3726 23.1973 19.3886 23.121 19.42C23.0448 19.4515 22.9755 19.4977 22.9171 19.556C22.8588 19.6143 22.8126 19.6836 22.7812 19.7599C22.7498 19.8362 22.7338 19.9179 22.7341 20.0004C22.7344 20.0825 22.7509 20.1637 22.7826 20.2394C22.8143 20.3151 22.8606 20.3838 22.9189 20.4416C22.9771 20.4994 23.0462 20.5452 23.1222 20.5763C23.1981 20.6074 23.2795 20.6233 23.3615 20.623H29.608C29.6901 20.6233 29.7714 20.6074 29.8474 20.5763C29.9233 20.5452 29.9924 20.4994 30.0507 20.4416C30.1089 20.3838 30.1552 20.3151 30.1869 20.2394C30.2186 20.1637 30.2351 20.0825 30.2355 20.0004C30.2358 19.9179 30.2198 19.8362 30.1883 19.7599C30.1569 19.6836 30.1107 19.6143 30.0524 19.556C29.9941 19.4977 29.9248 19.4515 29.8485 19.42C29.7722 19.3886 29.6905 19.3726 29.608 19.3729L23.3615 19.3729ZM6.48377 19.8295H7.48476V22.5566H6.48377V19.8295ZM20.8603 22.4834C20.6903 22.4835 20.5274 22.5511 20.4073 22.6712C20.2871 22.7914 20.2195 22.9543 20.2194 23.1242C20.2195 23.2942 20.2871 23.4571 20.4073 23.5772C20.5274 23.6974 20.6903 23.765 20.8603 23.7651C21.0302 23.765 21.1931 23.6974 21.3133 23.5772C21.4334 23.4571 21.501 23.2942 21.5012 23.1242C21.501 22.9543 21.4334 22.7914 21.3133 22.6712C21.1931 22.5511 21.0302 22.4835 20.8603 22.4834ZM23.3615 22.5004C23.2795 22.5 23.1981 22.5159 23.1222 22.547C23.0462 22.5781 22.9771 22.6239 22.9189 22.6817C22.8606 22.7395 22.8143 22.8082 22.7826 22.8839C22.7509 22.9596 22.7344 23.0409 22.7341 23.1229C22.7336 23.2055 22.7495 23.2874 22.7808 23.3638C22.8122 23.4402 22.8584 23.5097 22.9167 23.5681C22.9751 23.6266 23.0444 23.6729 23.1208 23.7044C23.1971 23.7359 23.279 23.7519 23.3615 23.7516H25.8616C25.9438 23.7513 26.0251 23.7348 26.1009 23.703C26.1767 23.6712 26.2454 23.6248 26.3033 23.5664C26.3611 23.508 26.4068 23.4388 26.4379 23.3627C26.4689 23.2866 26.4846 23.2051 26.4842 23.1229C26.4835 22.958 26.4177 22.8 26.3011 22.6834C26.1845 22.5668 26.0265 22.501 25.8616 22.5004H23.3615ZM10.9919 27.4992H12.3957L9.34881 33.4869C9.18679 33.8052 8.82596 33.9224 8.50773 33.7603C8.19003 33.5986 8.07243 33.236 8.23429 32.918L10.9919 27.4992ZM23.0747 27.4992H24.4773L27.2361 32.918C27.398 33.236 27.2804 33.5986 26.9627 33.7603C26.6445 33.9224 26.2836 33.8052 26.1216 33.4869L23.0747 27.4992ZM17.7377 31.9317C18.2381 31.9317 18.6276 32.326 18.6276 32.8265C18.6276 33.3269 18.2381 33.7164 17.7377 33.7164C17.2372 33.7164 16.8416 33.3269 16.8416 32.8265C16.8416 32.326 17.2372 31.9317 17.7377 31.9317Z" fill="#15B160"/>
</svg>
