<svg width="15" height="13" viewBox="0 0 15 13" fill="none" xmlns="http://www.w3.org/2000/svg">
<path d="M2.8724 8.75L5.3099 5L4.92552 5.58125C4.66927 5.96875 4.39115 6.39688 4.09115 6.86563C3.79115 7.33438 3.51302 7.76563 3.25677 8.15938L2.8724 8.75ZM0.827148 9.875L3.9569 5L0.827148 0.125H8.90409C9.16371 0.125 9.40771 0.183688 9.63609 0.301063C9.86434 0.418313 10.052 0.58175 10.1991 0.791375L13.0233 4.78081C12.7771 4.69131 12.5216 4.62425 12.2568 4.57963C11.9918 4.53488 11.7285 4.51638 11.467 4.52413L9.26465 1.4375C9.2214 1.37988 9.1709 1.33419 9.11315 1.30044C9.05552 1.26681 8.98584 1.25 8.90409 1.25H2.8724L5.3099 5L2.8724 8.75H6.5444C6.51177 8.9375 6.49546 9.12381 6.49546 9.30894C6.49546 9.49394 6.50459 9.68262 6.52284 9.875H0.827148ZM10.9925 11.0289L13.3608 8.68662L12.7319 8.05775L10.9925 9.76681L10.2685 9.03556L9.63965 9.67587L10.9925 11.0289ZM11.5002 12.9183C10.5637 12.9183 9.76709 12.5899 9.11034 11.9332C8.45359 11.2764 8.12521 10.4798 8.12521 9.54331C8.12521 8.60681 8.45359 7.81019 9.11034 7.15344C9.76709 6.49669 10.5637 6.16831 11.5002 6.16831C12.4367 6.16831 13.2333 6.49669 13.8901 7.15344C14.5468 7.81019 14.8752 8.60681 14.8752 9.54331C14.8752 10.4798 14.5468 11.2764 13.8901 11.9332C13.2333 12.5899 12.4367 12.9183 11.5002 12.9183Z" fill="#96A1C2"/>
</svg>
