<svg width="12" height="12" viewBox="0 0 12 12" fill="none" xmlns="http://www.w3.org/2000/svg">
<path d="M11.562 0.912109C11.7983 0.976562 11.9702 1.16992 11.9702 1.40625C11.9702 6.92773 7.50146 11.375 2.00146 11.375C1.74365 11.375 1.55029 11.2246 1.48584 10.9883L0.970215 8.75391C0.927246 8.51758 1.03467 8.25977 1.271 8.15234L3.67725 7.12109C3.89209 7.03516 4.12842 7.09961 4.27881 7.27148L5.35303 8.58203C7.02881 7.78711 8.38232 6.41211 9.15576 4.7793L7.84521 3.70508C7.67334 3.55469 7.60889 3.31836 7.69482 3.10352L8.72607 0.697266C8.8335 0.460938 9.09131 0.332031 9.32764 0.396484L11.562 0.912109Z" fill="#96A1C2"/>
</svg>
