<svg width="14" height="14" viewBox="0 0 14 14" fill="none" xmlns="http://www.w3.org/2000/svg">
<path d="M12.7251 5.35864C13.2231 5.35864 13.6626 5.7981 13.6626 6.29614V7.23364C13.6626 7.76099 13.2231 8.17114 12.7251 8.17114H8.50635V12.3899C8.50635 12.9172 8.06689 13.3274 7.56885 13.3274H6.63135C6.104 13.3274 5.69385 12.9172 5.69385 12.3899V8.17114H1.4751C0.947754 8.17114 0.537598 7.76099 0.537598 7.23364V6.29614C0.537598 5.7981 0.947754 5.35864 1.4751 5.35864H5.69385V1.13989C5.69385 0.641846 6.104 0.202393 6.63135 0.202393H7.56885C8.06689 0.202393 8.50635 0.641846 8.50635 1.13989V5.35864H12.7251Z" fill="#BE7B2E"/>
</svg>
