<svg width="12" height="12" viewBox="0 0 12 12" fill="none" xmlns="http://www.w3.org/2000/svg">
<path d="M9.49923 7.1673C9.15459 7.16958 8.81472 7.24818 8.50407 7.39746C8.19342 7.54673 7.91969 7.76297 7.70257 8.03064L4.72757 6.6598C4.86744 6.23149 4.86744 5.76978 4.72757 5.34147L7.70257 3.97064C8.05351 4.39412 8.54277 4.68001 9.08399 4.77788C9.62521 4.87574 10.1836 4.77927 10.6606 4.5055C11.1376 4.23172 11.5026 3.79825 11.6911 3.28157C11.8797 2.76489 11.8796 2.19823 11.691 1.68158C11.5024 1.16494 11.1373 0.731528 10.6603 0.457843C10.1832 0.184158 9.62477 0.0877909 9.08357 0.18575C8.54237 0.28371 8.05316 0.569698 7.7023 0.993241C7.35143 1.41679 7.16145 1.95066 7.1659 2.50064C7.16766 2.6396 7.18132 2.77817 7.20673 2.9148L4.12673 4.3323C3.79836 4.01122 3.38254 3.79419 2.93137 3.70839C2.4802 3.62258 2.01374 3.67183 1.59043 3.84996C1.16712 4.02809 0.805795 4.32718 0.551717 4.70976C0.297639 5.09233 0.162109 5.54138 0.162109 6.00064C0.162109 6.4599 0.297639 6.90894 0.551717 7.29152C0.805795 7.67409 1.16712 7.97318 1.59043 8.15131C2.01374 8.32944 2.4802 8.37869 2.93137 8.29289C3.38254 8.20709 3.79836 7.99005 4.12673 7.66897L7.20673 9.08647C7.18132 9.22311 7.16766 9.36167 7.1659 9.50064C7.1659 9.96213 7.30275 10.4133 7.55914 10.797C7.81553 11.1807 8.17995 11.4798 8.60631 11.6564C9.03267 11.833 9.50182 11.8792 9.95444 11.7891C10.4071 11.6991 10.8228 11.4769 11.1491 11.1506C11.4755 10.8242 11.6977 10.4085 11.7877 9.95585C11.8778 9.50322 11.8316 9.03407 11.655 8.60771C11.4783 8.18135 11.1793 7.81693 10.7956 7.56054C10.4118 7.30415 9.96072 7.1673 9.49923 7.1673ZM9.49923 1.33397C9.72998 1.33397 9.95554 1.40239 10.1474 1.53059C10.3393 1.65878 10.4888 1.84099 10.5771 2.05417C10.6654 2.26735 10.6885 2.50193 10.6435 2.72824C10.5985 2.95455 10.4874 3.16243 10.3242 3.32559C10.161 3.48876 9.95315 3.59987 9.72684 3.64489C9.50053 3.6899 9.26595 3.6668 9.05277 3.5785C8.83959 3.49019 8.65738 3.34066 8.52919 3.1488C8.40099 2.95694 8.33257 2.73138 8.33257 2.50064C8.33257 2.19122 8.45548 1.89447 8.67428 1.67568C8.89307 1.45689 9.18981 1.33397 9.49923 1.33397V1.33397ZM2.49923 7.1673C2.26849 7.1673 2.04293 7.09888 1.85107 6.97068C1.65921 6.84249 1.50968 6.66028 1.42137 6.4471C1.33307 6.23392 1.30997 5.99934 1.35498 5.77303C1.4 5.54672 1.51111 5.33884 1.67428 5.17568C1.83744 5.01252 2.04532 4.9014 2.27163 4.85639C2.49794 4.81137 2.73252 4.83447 2.9457 4.92278C3.15888 5.01108 3.34109 5.16061 3.46928 5.35247C3.59748 5.54433 3.6659 5.76989 3.6659 6.00064C3.6659 6.31006 3.54298 6.6068 3.32419 6.82559C3.1054 7.04439 2.80865 7.1673 2.49923 7.1673ZM9.49923 10.6673C9.26849 10.6673 9.04293 10.5989 8.85107 10.4707C8.65921 10.3425 8.50968 10.1603 8.42137 9.9471C8.33307 9.73392 8.30997 9.49934 8.35498 9.27303C8.4 9.04672 8.51112 8.83884 8.67428 8.67568C8.83744 8.51252 9.04532 8.4014 9.27163 8.35639C9.49794 8.31137 9.73252 8.33447 9.9457 8.42278C10.1589 8.51108 10.3411 8.66061 10.4693 8.85247C10.5975 9.04433 10.6659 9.26989 10.6659 9.50064C10.6659 9.81006 10.543 10.1068 10.3242 10.3256C10.1054 10.5444 9.80865 10.6673 9.49923 10.6673Z" fill="#030319" fill-opacity="0.6"/>
</svg>
