<svg width="39" height="40" viewBox="0 0 39 40" fill="none" xmlns="http://www.w3.org/2000/svg">
<path opacity="0.99" d="M28.5412 17.5078C31.7028 17.5078 34.2565 20.2912 34.2565 23.3947V27.9703H22.8223V23.3947C22.8223 20.2912 25.3797 17.5078 28.5412 17.5078ZM26.4103 31.8334H30.6697C30.4121 33.0469 29.5823 33.9479 28.54 33.9479C27.4977 33.9479 26.6679 33.0469 26.4103 31.8334Z" fill="#15B160"/>
<path d="M7.19576 7.14453H9.33494C9.64465 7.14453 9.89399 7.40135 9.89399 7.72037V9.73022C9.89399 10.0492 9.64465 10.3061 9.33494 10.3061H7.19576C6.88605 10.3061 6.63672 10.0492 6.63672 9.73022V7.72037C6.63672 7.40135 6.88605 7.14453 7.19576 7.14453ZM7.19576 14.6264H9.33494C9.64465 14.6264 9.89399 14.8833 9.89399 15.2023V17.2121C9.89399 17.5311 9.64465 17.788 9.33494 17.788H7.19576C6.88605 17.788 6.63672 17.5311 6.63672 17.2121V15.2023C6.63672 14.8833 6.88605 14.6264 7.19576 14.6264ZM7.19576 22.5297H9.33494C9.64465 22.5297 9.89399 22.7865 9.89399 23.1055V25.1154C9.89399 25.4344 9.64465 25.6912 9.33494 25.6912H7.19576C6.88605 25.6912 6.63672 25.4344 6.63672 25.1154V23.1055C6.63672 22.7865 6.88605 22.5297 7.19576 22.5297ZM7.19576 29.9465H9.33494C9.64465 29.9465 9.89399 30.2033 9.89399 30.5223V32.5322C9.89399 32.8512 9.64465 33.108 9.33494 33.108H7.19576C6.88605 33.108 6.63672 32.8512 6.63672 32.5322V30.5223C6.63672 30.2033 6.88605 29.9465 7.19576 29.9465Z" fill="#15B160"/>
<path opacity="0.99" d="M4.27934 2.50008C3.28755 2.50008 2.45898 3.33034 2.45898 4.35192V35.6489C2.45898 36.6705 3.28756 37.5008 4.27934 37.5008H27.9819C28.7623 37.5008 28.7935 36.2507 27.9333 36.2507H4.27934C3.92649 36.2507 3.67256 35.9872 3.67256 35.6489V4.35192C3.67256 4.01365 3.92649 3.7501 4.27934 3.7501H22.4486V7.28655C22.4486 8.60688 23.4967 9.68528 24.7785 9.68528H27.9772L27.9712 11.9839C27.9712 12.8328 29.1848 12.8326 29.1848 11.9863L29.1931 8.95642C29.1933 8.79262 29.1312 8.63527 29.02 8.51818L23.4878 2.68799C23.3737 2.56777 23.2173 2.50002 23.0541 2.5L4.27934 2.50008ZM23.6586 4.6571L27.2436 8.43525H24.7785C24.148 8.43525 23.6586 7.93599 23.6586 7.28655V4.6571ZM6.7219 6.5297C6.64211 6.52938 6.56306 6.54528 6.48924 6.57647C6.41543 6.60766 6.34832 6.65354 6.29174 6.71148C6.23516 6.76942 6.19022 6.83828 6.15951 6.91412C6.12879 6.98997 6.1129 7.07131 6.11274 7.15348V10.3091C6.11243 10.3916 6.12798 10.4733 6.15848 10.5496C6.18899 10.6258 6.23385 10.6951 6.29047 10.7534C6.3471 10.8118 6.41438 10.858 6.48842 10.8894C6.56247 10.9208 6.64182 10.9368 6.7219 10.9365H9.78664C9.86672 10.9368 9.94607 10.9208 10.0201 10.8894C10.0942 10.858 10.1614 10.8118 10.2181 10.7534C10.2747 10.6951 10.3195 10.6258 10.35 10.5496C10.3805 10.4733 10.3961 10.3916 10.3958 10.3091V7.15348C10.3956 7.07131 10.3797 6.98997 10.349 6.91412C10.3183 6.83828 10.2734 6.76942 10.2168 6.71148C10.1602 6.65354 10.0931 6.60766 10.0193 6.57647C9.94548 6.54528 9.86642 6.52938 9.78664 6.5297H6.7219ZM13.0694 6.59929C12.9093 6.59993 12.756 6.66573 12.6427 6.78234C12.5295 6.89896 12.4656 7.05694 12.465 7.22186C12.4656 7.38678 12.5295 7.54476 12.6427 7.66137C12.756 7.77799 12.9093 7.84379 13.0694 7.84443H15.8059C15.8856 7.84475 15.9646 7.8289 16.0383 7.79779C16.112 7.76668 16.1791 7.72091 16.2357 7.66309C16.2922 7.60528 16.3372 7.53656 16.368 7.46085C16.3988 7.38515 16.4148 7.30394 16.4151 7.22186C16.4148 7.13978 16.3988 7.05857 16.368 6.98286C16.3372 6.90715 16.2922 6.83843 16.2357 6.78062C16.1791 6.72281 16.112 6.67704 16.0383 6.64593C15.9646 6.61482 15.8856 6.59897 15.8059 6.59929H13.0694ZM7.32749 7.78095H9.18104V9.68529H7.32749V7.78095ZM13.0694 9.61693C12.9898 9.61725 12.9109 9.63373 12.8374 9.66543C12.7639 9.69714 12.6972 9.74345 12.6411 9.80171C12.5849 9.85998 12.5405 9.92906 12.5103 10.005C12.4801 10.081 12.4647 10.1623 12.465 10.2444C12.4656 10.4093 12.5295 10.5673 12.6427 10.6839C12.756 10.8005 12.9093 10.8663 13.0694 10.867H18.8434C19.0035 10.8663 19.1569 10.8005 19.2701 10.6839C19.3833 10.5673 19.4472 10.4093 19.4478 10.2444C19.4481 10.1623 19.4327 10.081 19.4025 10.005C19.3723 9.92906 19.3279 9.85998 19.2718 9.80171C19.2156 9.74345 19.1489 9.69714 19.0754 9.66543C19.0019 9.63373 18.9231 9.61725 18.8434 9.61693H13.0694ZM28.5401 13.8895C27.5426 13.8895 26.7221 14.7394 26.7221 15.7669V16.7545C23.905 17.5962 21.8536 20.3202 21.8536 23.366V27.9718C21.1682 28.3301 20.6969 29.0767 20.6969 29.9262V31.4911C20.6981 31.8349 20.9688 32.113 21.3025 32.1137H25.3438C25.5957 33.6964 26.9339 34.9152 28.5389 34.9153C30.144 34.9152 31.4822 33.6965 31.734 32.1137H35.7741C36.1079 32.113 36.3784 31.8349 36.3797 31.4911V29.9262C36.3797 29.0766 35.9085 28.3301 35.2231 27.9718V23.366C35.2231 20.3188 33.1727 17.5936 30.3545 16.7533V15.7669C30.3545 14.7394 29.5376 13.8895 28.5401 13.8895V13.8895ZM6.7219 13.9578C6.64182 13.9575 6.56247 13.9735 6.48842 14.005C6.41438 14.0364 6.3471 14.0826 6.29047 14.1409C6.23385 14.1992 6.18899 14.2685 6.15848 14.3448C6.12798 14.4211 6.11243 14.5028 6.11274 14.5853V17.7421C6.11243 17.8246 6.12798 17.9063 6.15848 17.9826C6.18899 18.0588 6.23385 18.1281 6.29047 18.1865C6.3471 18.2448 6.41438 18.291 6.48842 18.3224C6.56247 18.3538 6.64182 18.3699 6.7219 18.3695H9.78664C9.86672 18.3699 9.94607 18.3538 10.0201 18.3224C10.0942 18.291 10.1614 18.2448 10.2181 18.1865C10.2747 18.1281 10.3195 18.0588 10.35 17.9826C10.3805 17.9063 10.3961 17.8246 10.3958 17.7421V14.5853C10.3961 14.5028 10.3805 14.4211 10.35 14.3448C10.3195 14.2685 10.2747 14.1992 10.2181 14.1409C10.1614 14.0826 10.0942 14.0364 10.0201 14.005C9.94607 13.9735 9.86672 13.9575 9.78664 13.9578H6.7219ZM13.0694 14.0274C12.9898 14.0277 12.9109 14.0442 12.8374 14.0759C12.7639 14.1076 12.6972 14.1539 12.6411 14.2122C12.5849 14.2705 12.5405 14.3396 12.5103 14.4155C12.4801 14.4915 12.4647 14.5728 12.465 14.6549C12.4656 14.8198 12.5295 14.9778 12.6427 15.0944C12.756 15.211 12.9093 15.2768 13.0694 15.2775H15.8059C15.8856 15.2778 15.9646 15.2619 16.0383 15.2308C16.112 15.1997 16.1791 15.1539 16.2357 15.0961C16.2922 15.0383 16.3372 14.9696 16.368 14.8939C16.3988 14.8182 16.4148 14.737 16.4151 14.6549C16.4154 14.5724 16.3998 14.4907 16.3693 14.4144C16.3388 14.3381 16.294 14.2688 16.2373 14.2105C16.1807 14.1522 16.1134 14.1059 16.0394 14.0745C15.9653 14.0431 15.886 14.0271 15.8059 14.0274H13.0694ZM28.5401 15.1395C28.8847 15.1395 29.1457 15.4085 29.1457 15.767V16.514C28.9463 16.4949 28.7444 16.4823 28.5401 16.4823C28.3359 16.4823 28.1351 16.4951 27.9357 16.514V15.767C27.9357 15.4085 28.1955 15.1395 28.5401 15.1395ZM7.32749 15.2091H9.18104V17.1183H7.32749V15.2091ZM13.0694 17.05C12.9093 17.0506 12.756 17.1164 12.6427 17.233C12.5295 17.3496 12.4656 17.5076 12.465 17.6725C12.4647 17.7546 12.4801 17.8359 12.5103 17.9119C12.5405 17.9879 12.5849 18.0569 12.6411 18.1152C12.6972 18.1735 12.7639 18.2198 12.8374 18.2515C12.9109 18.2832 12.9898 18.2997 13.0694 18.3H18.8434C18.9231 18.2997 19.0019 18.2832 19.0754 18.2515C19.1489 18.2198 19.2156 18.1735 19.2718 18.1152C19.3279 18.0569 19.3723 17.9879 19.4025 17.9119C19.4327 17.8359 19.4481 17.7546 19.4478 17.6725C19.4472 17.5076 19.3833 17.3496 19.2701 17.233C19.1569 17.1164 19.0035 17.0506 18.8434 17.05H13.0694ZM28.5401 17.7323C31.5657 17.7323 34.0095 20.396 34.0095 23.366V27.7448H23.0672V23.366C23.0672 20.396 25.5146 17.7323 28.5401 17.7323ZM6.7219 21.8706C6.56097 21.87 6.40639 21.9352 6.29215 22.052C6.17792 22.1687 6.11338 22.3274 6.11274 22.4932V25.6536C6.1129 25.7358 6.12879 25.8172 6.15951 25.893C6.19022 25.9689 6.23516 26.0377 6.29174 26.0957C6.34832 26.1536 6.41543 26.1995 6.48924 26.2307C6.56306 26.2619 6.64211 26.2778 6.7219 26.2774H9.78664C9.86642 26.2778 9.94548 26.2619 10.0193 26.2307C10.0931 26.1995 10.1602 26.1536 10.2168 26.0957C10.2734 26.0377 10.3183 25.9689 10.349 25.893C10.3797 25.8172 10.3956 25.7358 10.3958 25.6536V22.4932C10.3952 22.3274 10.3306 22.1687 10.2164 22.052C10.1021 21.9352 9.94756 21.87 9.78664 21.8706H6.7219ZM13.0694 21.9402C12.9093 21.9408 12.756 22.0066 12.6427 22.1233C12.5295 22.2399 12.4656 22.3979 12.465 22.5628C12.4647 22.6449 12.4801 22.7262 12.5103 22.8021C12.5405 22.8781 12.5849 22.9472 12.6411 23.0054C12.6972 23.0637 12.7639 23.11 12.8374 23.1417C12.9109 23.1734 12.9898 23.1899 13.0694 23.1902H17.6298C17.7095 23.1899 17.7883 23.1734 17.8618 23.1417C17.9353 23.11 18.0021 23.0637 18.0582 23.0054C18.1143 22.9472 18.1587 22.8781 18.189 22.8021C18.2192 22.7262 18.2345 22.6449 18.2342 22.5628C18.2336 22.3979 18.1697 22.2399 18.0565 22.1233C17.9433 22.0066 17.7899 21.9408 17.6298 21.9402H13.0694ZM7.32749 23.1206H9.18104V25.0262H7.32749V23.1206ZM13.0694 24.9578C12.9898 24.9582 12.9109 24.9746 12.8374 25.0063C12.7639 25.0381 12.6972 25.0844 12.6411 25.1426C12.5849 25.2009 12.5405 25.27 12.5103 25.3459C12.4801 25.4219 12.4647 25.5032 12.465 25.5853C12.4656 25.7502 12.5295 25.9082 12.6427 26.0248C12.756 26.1414 12.9093 26.2072 13.0694 26.2079H15.4966C15.5763 26.2082 15.6552 26.1923 15.729 26.1612C15.8027 26.1301 15.8698 26.0843 15.9263 26.0265C15.9829 25.9687 16.0279 25.9 16.0586 25.8243C16.0894 25.7486 16.1054 25.6674 16.1057 25.5853C16.1061 25.5028 16.0905 25.4211 16.06 25.3448C16.0295 25.2685 15.9847 25.1992 15.928 25.1409C15.8714 25.0826 15.8041 25.0364 15.7301 25.0049C15.656 24.9735 15.5767 24.9575 15.4966 24.9578H13.0694ZM22.7496 28.9948H34.3283C34.7889 28.9948 35.165 29.3819 35.165 29.9262V30.8637H21.9117V29.9262C21.9117 29.3819 22.289 28.9948 22.7496 28.9948ZM6.7219 29.0644C6.64182 29.0641 6.56247 29.0801 6.48842 29.1115C6.41438 29.1429 6.3471 29.1891 6.29047 29.2474C6.23385 29.3058 6.18899 29.3751 6.15848 29.4513C6.12798 29.5276 6.11243 29.6093 6.11274 29.6918V32.8474C6.11243 32.9299 6.12798 33.0116 6.15848 33.0879C6.18899 33.1642 6.23385 33.2335 6.29047 33.2918C6.3471 33.3501 6.41438 33.3963 6.48842 33.4277C6.56247 33.4592 6.64182 33.4752 6.7219 33.4749H9.78664C9.86672 33.4752 9.94607 33.4592 10.0201 33.4277C10.0942 33.3963 10.1614 33.3501 10.2181 33.2918C10.2747 33.2335 10.3195 33.1642 10.35 33.0879C10.3805 33.0116 10.3961 32.9299 10.3958 32.8474V29.6918C10.3961 29.6093 10.3805 29.5276 10.35 29.4513C10.3195 29.3751 10.2747 29.3058 10.2181 29.2474C10.1614 29.1891 10.0942 29.1429 10.0201 29.1115C9.94607 29.0801 9.86672 29.0641 9.78664 29.0644H6.7219ZM13.0694 29.1327C12.9898 29.133 12.9109 29.1495 12.8374 29.1812C12.7639 29.2129 12.6972 29.2592 12.6411 29.3175C12.5849 29.3758 12.5405 29.4449 12.5103 29.5208C12.4801 29.5968 12.4647 29.6781 12.465 29.7602C12.4656 29.9251 12.5295 30.0831 12.6427 30.1997C12.756 30.3163 12.9093 30.3821 13.0694 30.3828H17.6298C17.7899 30.3821 17.9433 30.3163 18.0565 30.1997C18.1697 30.0831 18.2336 29.9251 18.2342 29.7601C18.2345 29.6781 18.2192 29.5967 18.189 29.5208C18.1587 29.4448 18.1143 29.3757 18.0582 29.3175C18.0021 29.2592 17.9353 29.2129 17.8618 29.1812C17.7883 29.1495 17.7095 29.133 17.6298 29.1327L13.0694 29.1327ZM7.32749 30.3144H9.18104V32.2236H7.32749V30.3144ZM26.6155 32.115H30.4624C30.2298 33.0047 29.4803 33.6653 28.5389 33.6653C27.5976 33.6653 26.8481 33.0047 26.6155 32.115ZM13.0694 32.1552C12.9093 32.1559 12.756 32.2217 12.6427 32.3383C12.5295 32.4549 12.4656 32.6129 12.465 32.7778C12.4647 32.8599 12.4801 32.9412 12.5103 33.0172C12.5405 33.0931 12.5849 33.1622 12.6411 33.2205C12.6972 33.2787 12.7639 33.3251 12.8374 33.3568C12.9109 33.3885 12.9898 33.405 13.0694 33.4053H15.4966C15.5767 33.4056 15.656 33.3896 15.7301 33.3582C15.8041 33.3267 15.8714 33.2805 15.928 33.2222C15.9847 33.1639 16.0295 33.0946 16.06 33.0183C16.0905 32.942 16.1061 32.8603 16.1057 32.7778C16.1054 32.6957 16.0894 32.6145 16.0586 32.5388C16.0279 32.4631 15.9829 32.3944 15.9263 32.3366C15.8698 32.2788 15.8027 32.233 15.729 32.2019C15.6552 32.1708 15.5763 32.1549 15.4966 32.1552H13.0694Z" fill="#15B160"/>
</svg>
