<svg width="12" height="18" viewBox="0 0 12 18" fill="none" xmlns="http://www.w3.org/2000/svg">
<path d="M7.66684 13.9998C7.88785 13.9998 8.09981 13.912 8.25609 13.7557C8.41237 13.5994 8.50017 13.3875 8.50017 13.1665L8.50017 3.50812L10.4085 5.42479C10.5654 5.58171 10.7783 5.66987 11.0002 5.66987C11.2221 5.66987 11.4349 5.58171 11.5918 5.42479C11.7488 5.26787 11.8369 5.05504 11.8369 4.83312C11.8369 4.61121 11.7488 4.39838 11.5918 4.24146L8.25851 0.908124C8.14132 0.792493 7.99251 0.714162 7.83085 0.683017C7.66919 0.651872 7.50193 0.669308 7.35017 0.733124C7.19799 0.795641 7.06772 0.901805 6.97577 1.03824C6.88383 1.17467 6.83433 1.33527 6.83351 1.49979L6.8335 13.1665C6.8335 13.3875 6.9213 13.5994 7.07758 13.7557C7.23386 13.912 7.44582 13.9998 7.66684 13.9998ZM4.65017 17.2665C4.80235 17.2039 4.93263 17.0978 5.02457 16.9613C5.11652 16.8249 5.16602 16.6643 5.16684 16.4998L5.16684 4.83312C5.16684 4.61211 5.07904 4.40015 4.92276 4.24387C4.76648 4.08759 4.55452 3.99979 4.33351 3.99979C4.11249 3.99979 3.90053 4.08759 3.74425 4.24387C3.58797 4.40015 3.50017 4.61211 3.50017 4.83312L3.50017 14.4915L1.59184 12.5748C1.51437 12.4967 1.4222 12.4347 1.32065 12.3924C1.2191 12.3501 1.11018 12.3283 1.00017 12.3283C0.890164 12.3283 0.781242 12.3501 0.679693 12.3924C0.578143 12.4347 0.485977 12.4967 0.408508 12.5748C0.330401 12.6523 0.268404 12.7444 0.226097 12.846C0.18379 12.9475 0.162008 13.0564 0.162008 13.1665C0.162008 13.2765 0.18379 13.3854 0.226097 13.4869C0.268404 13.5885 0.330401 13.6807 0.408508 13.7581L3.74184 17.0915C3.85902 17.2071 4.00784 17.2854 4.16949 17.3166C4.33115 17.3477 4.49841 17.3303 4.65017 17.2665V17.2665Z" fill="white"/>
</svg>
